<?xml version="1.0" encoding="utf-8"?>
<!-- Generator: Adobe Illustrator 16.0.0, SVG Export Plug-In . SVG Version: 6.00 Build 0)  -->
<!DOCTYPE svg PUBLIC "-//W3C//DTD SVG 1.1//EN" "http://www.w3.org/Graphics/SVG/1.1/DTD/svg11.dtd">
<svg version="1.1" id="Layer_1" xmlns="http://www.w3.org/2000/svg" xmlns:xlink="http://www.w3.org/1999/xlink" x="0px" y="0px"
	 width="727.99px" height="90px" viewBox="0 0 727.99 90" enable-background="new 0 0 727.99 90" xml:space="preserve">
<g>
	<defs>
		<rect id="SVGID_1_" width="727.99" height="91.444"/>
	</defs>
	<clipPath id="SVGID_2_">
		<use xlink:href="#SVGID_1_"  overflow="visible"/>
	</clipPath>
	<g clip-path="url(#SVGID_2_)">
		<polygon fill="#2B2F3A" points="268.205,72.608 360.259,53.775 456.563,73.474 552.856,53.776 737,91.444 737,-3.674 
			552.856,33.993 456.563,14.296 360.259,33.993 268.205,15.159 176.119,33.993 -8,-3.674 -8,91.444 176.119,53.775 		"/>
		<polygon fill="#3D4250" points="456.563,19.619 552.856,41.2 737,-0.071 552.856,-41.343 456.563,-19.761 360.259,-41.343 
			268.205,-20.708 176.119,-41.344 -8,-0.071 176.119,41.2 268.205,20.564 360.259,41.2 		"/>
		<polygon fill="#191D23" points="456.563,108.104 552.856,129.112 737,88.938 552.856,48.763 456.563,69.771 360.259,48.762 
			268.205,68.848 176.119,48.762 -8,88.938 176.119,129.112 268.205,109.025 360.259,129.112 		"/>
	</g>
	<g clip-path="url(#SVGID_2_)">
		<polygon fill="#2D323A" points="167.962,25.419 158.323,46.952 148.655,25.419 136.028,25.419 136.028,31.671 140.382,36.024 
			136.028,40.378 136.028,43.688 140.382,48.042 136.028,52.396 136.028,55.179 140.382,59.532 136.028,63.886 136.028,69.042 
			146.341,69.042 146.341,40.126 154.28,58.788 161.751,58.788 169.69,40.126 169.69,69.042 180.589,69.042 180.589,25.419 		"/>
		<path fill="#2D323A" d="M587.288,50.849c0-5.059-1.27-8.945-3.809-11.66s-6.328-4.072-11.367-4.072
			c-5.026,0-9.031,1.329-12.037,3.959l1.764,1.764l-6.009,6.008l6.009,6.01l-5.745,5.744l5.745,5.746l-1.661,1.661
			c3.271,2.597,7.795,3.913,13.604,3.913c1.699,0,3.14-0.084,4.321-0.249c1.182-0.166,2.329-0.396,3.442-0.688
			c1.211-0.293,2.163-0.581,2.856-0.864c0.693-0.282,1.46-0.591,2.3-0.923v-8.467h-1.084c-0.449,0.332-1.03,0.713-1.743,1.143
			s-1.489,0.83-2.329,1.201c-0.957,0.43-2.012,0.776-3.164,1.04s-2.324,0.396-3.516,0.396c-1.387,0-2.666-0.132-3.838-0.396
			s-2.197-0.698-3.076-1.304c-0.898-0.605-1.621-1.421-2.168-2.446s-0.869-2.3-0.967-3.823h22.471V50.849z M564.788,48.358
			c0.117-2.051,0.737-3.672,1.86-4.863s2.681-1.787,4.673-1.787c1.953,0,3.403,0.566,4.351,1.699s1.45,2.783,1.509,4.951H564.788z"
			/>
		<path fill="#2D323A" d="M546.683,38.412c-1.777-2.119-4.346-3.179-7.705-3.179c-1.934,0-3.696,0.4-5.288,1.201
			s-3.228,1.914-4.907,3.34v-3.633h-10.254v1.167l3.602,3.602l-3.602,3.603v4.813l3.602,3.603l-3.602,3.602v4.286l3.602,3.603
			l-3.602,3.601v1.022h10.254v-23.32c0.977-0.684,1.895-1.182,2.754-1.494s1.709-0.469,2.549-0.469c1.113,0,2.002,0.161,2.666,0.483
			s1.172,0.854,1.523,1.597c0.293,0.625,0.493,1.597,0.601,2.915s0.161,2.642,0.161,3.97v16.318h10.313V47.626
			C549.349,43.603,548.46,40.532,546.683,38.412z"/>
		<path fill="#2D323A" d="M506.985,30.59c-3.77-4.053-8.936-6.079-15.498-6.079c-6.582,0-11.748,2.036-15.498,6.108
			c-0.162,0.177-0.302,0.372-0.457,0.554l3.322,3.322l-6.009,6.01l6.009,6.009l-5.745,5.744l5.745,5.746l-4.193,4.192
			c0.413,0.562,0.855,1.101,1.328,1.616c3.75,4.092,8.916,6.138,15.498,6.138c6.563,0,11.729-2.021,15.498-6.064
			s5.654-9.59,5.654-16.641S510.755,34.644,506.985,30.59z M500.569,53.852c-0.508,1.689-1.23,3.169-2.168,4.438
			c-0.879,1.172-1.924,2.036-3.135,2.593s-2.461,0.835-3.75,0.835c-1.27,0-2.5-0.259-3.691-0.776
			c-1.191-0.517-2.256-1.382-3.193-2.593c-0.918-1.191-1.641-2.67-2.168-4.438c-0.527-1.768-0.791-3.989-0.791-6.665
			c0-2.598,0.278-4.834,0.835-6.709s1.284-3.379,2.183-4.512c1.016-1.23,2.07-2.084,3.164-2.563
			c1.094-0.479,2.314-0.718,3.662-0.718c1.27,0,2.495,0.26,3.677,0.776c1.182,0.518,2.241,1.372,3.179,2.563
			c0.898,1.172,1.616,2.671,2.153,4.497c0.537,1.827,0.806,4.038,0.806,6.636C501.331,49.95,501.077,52.163,500.569,53.852z"/>
		<path fill="#2D323A" d="M444.495,38.412c-1.777-2.119-4.346-3.179-7.705-3.179c-1.934,0-3.696,0.4-5.288,1.201
			s-3.228,1.914-4.907,3.34v-3.633h-8.588l4.242,4.242l-5.908,5.908v0.201l5.908,5.909l-5.745,5.744l5.745,5.746l-5.149,5.149h9.495
			v-23.32c0.977-0.684,1.895-1.182,2.754-1.494s1.709-0.469,2.549-0.469c1.113,0,2.002,0.161,2.666,0.483s1.172,0.854,1.523,1.597
			c0.293,0.625,0.493,1.597,0.601,2.915s0.161,2.642,0.161,3.97v16.318h10.313V47.626C447.161,43.603,446.272,40.532,444.495,38.412
			z"/>
		<path fill="#2D323A" d="M404.871,38.031c-2.589-1.885-6.714-2.827-12.378-2.827c-2.305,0-4.59,0.201-6.855,0.601
			c-1.876,0.331-3.316,0.626-4.336,0.884l5.15,5.15l-1.784,1.783c0.555-0.182,1.108-0.369,1.673-0.522
			c1.621-0.439,3.037-0.659,4.248-0.659c2.676,0,4.683,0.348,6.021,1.04c1.337,0.693,2.007,1.948,2.007,3.765v0.176
			c-2.969,0.195-5.742,0.469-8.32,0.82s-4.795,0.977-6.65,1.875c-0.213,0.102-0.399,0.223-0.601,0.333l3.407,3.407l-5.745,5.744
			l5.745,5.746l-3.355,3.355c1.464,0.809,3.13,1.219,5.002,1.219c1.563,0,2.778-0.117,3.647-0.352
			c0.868-0.234,1.763-0.576,2.681-1.025c0.938-0.469,1.685-0.938,2.241-1.406s1.187-0.996,1.89-1.582v3.486h10.195V46.659
			C408.753,42.792,407.459,39.917,404.871,38.031z M398.558,60.458c-0.762,0.742-1.611,1.318-2.549,1.729s-1.855,0.615-2.754,0.615
			c-1.621,0-2.847-0.288-3.677-0.864c-0.831-0.575-1.245-1.636-1.245-3.179c0-1.055,0.249-1.899,0.747-2.534
			c0.498-0.634,1.196-1.108,2.095-1.421c1.035-0.371,2.09-0.619,3.164-0.747c1.074-0.127,2.48-0.278,4.219-0.454V60.458z"/>
		<path fill="#2D323A" d="M370.169,38.412c-1.777-2.119-4.346-3.179-7.705-3.179c-1.934,0-3.696,0.4-5.288,1.201
			c-1.592,0.801-3.228,1.914-4.907,3.34V23.456h-10.254v5.475l5.565,5.564l-5.565,5.565v0.888l5.565,5.565l-5.565,5.564v0.36
			l5.565,5.565l-5.565,5.564v5.474h10.254v-23.32c0.977-0.684,1.894-1.182,2.754-1.494c0.859-0.313,1.709-0.469,2.549-0.469
			c1.113,0,2.002,0.161,2.666,0.483c0.664,0.322,1.172,0.854,1.523,1.597c0.293,0.625,0.493,1.597,0.601,2.915
			c0.107,1.318,0.161,2.642,0.161,3.97v16.318h10.313V47.626C372.835,43.603,371.946,40.532,370.169,38.412z"/>
		<path fill="#2D323A" d="M282.425,50.849c0-5.059-1.27-8.945-3.809-11.66c-2.539-2.715-6.328-4.072-11.367-4.072
			c-4.229,0-7.736,0.938-10.535,2.799l2.924,2.924l-6.009,6.008l6.009,6.01l-5.745,5.744l5.745,5.746l-2.753,2.753
			c3.103,1.87,7.104,2.821,12.034,2.821c1.699,0,3.139-0.084,4.321-0.249c1.182-0.166,2.329-0.396,3.442-0.688
			c1.211-0.293,2.163-0.581,2.856-0.864c0.693-0.282,1.46-0.591,2.3-0.923v-8.467h-1.084c-0.45,0.332-1.03,0.713-1.743,1.143
			c-0.713,0.43-1.49,0.83-2.329,1.201c-0.957,0.43-2.012,0.776-3.164,1.04c-1.153,0.264-2.325,0.396-3.516,0.396
			c-1.387,0-2.666-0.132-3.838-0.396s-2.197-0.698-3.076-1.304c-0.898-0.605-1.622-1.421-2.168-2.446
			c-0.547-1.025-0.869-2.3-0.967-3.823h22.471V50.849z M259.925,48.358c0.117-2.051,0.737-3.672,1.86-4.863
			c1.123-1.191,2.681-1.787,4.673-1.787c1.953,0,3.403,0.566,4.351,1.699c0.947,1.133,1.45,2.783,1.509,4.951H259.925z"/>
		<path fill="#2D323A" d="M247.034,36.054c-0.41-0.02-0.781-0.029-1.113-0.029c-0.879,0-1.812,0.161-2.798,0.483
			c-0.986,0.322-1.851,0.708-2.593,1.157c-0.684,0.391-1.44,0.913-2.271,1.567c-0.831,0.655-1.479,1.196-1.948,1.626v-4.717h-8.455
			l4.243,4.242l-6.009,6.01l6.009,6.009l-5.745,5.744l5.745,5.746l-5.15,5.149h9.362V47.011c1.113-0.43,2.26-0.801,3.442-1.113
			c1.182-0.313,2.31-0.469,3.384-0.469c0.898,0,1.718,0.034,2.461,0.103c0.742,0.069,1.308,0.171,1.699,0.308h0.85v-9.697
			C247.815,36.103,247.444,36.073,247.034,36.054z"/>
		<path fill="#2D323A" d="M216.155,39.789c-2.969-3.115-7.148-4.673-12.539-4.673c-4.368,0-7.931,1.042-10.716,3.089l2.179,2.179
			l-6.009,6.01l6.009,6.009l-5.745,5.744l5.745,5.746l-2.69,2.689c2.853,2.32,6.592,3.485,11.227,3.485
			c5.41,0,9.595-1.557,12.554-4.673c2.959-3.115,4.438-7.378,4.438-12.788C220.608,47.177,219.124,42.905,216.155,39.789z
			 M209.622,57.572c-0.313,1.183-0.772,2.192-1.377,3.032c-0.508,0.703-1.187,1.23-2.036,1.582s-1.685,0.527-2.505,0.527
			c-0.996,0-1.904-0.176-2.725-0.527s-1.504-0.908-2.051-1.67c-0.527-0.742-0.957-1.732-1.289-2.974
			c-0.333-1.24-0.498-2.866-0.498-4.878s0.176-3.682,0.527-5.01s0.82-2.373,1.406-3.135c0.625-0.801,1.308-1.343,2.051-1.626
			c0.742-0.282,1.572-0.425,2.49-0.425c0.977,0,1.846,0.161,2.607,0.483s1.445,0.894,2.051,1.714
			c0.566,0.781,1.011,1.821,1.333,3.12c0.322,1.3,0.483,2.925,0.483,4.878C210.091,54.755,209.934,56.391,209.622,57.572z"/>
		<polygon fill="#2D323A" points="301.351,25.419 301.351,27.704 307.386,33.739 314.241,33.739 314.241,40.851 316.873,43.481 
			314.241,46.114 314.241,52.868 316.873,55.5 314.241,58.132 314.241,64.358 316.873,66.99 314.821,69.042 325.198,69.042 
			325.198,33.739 338.089,33.739 338.089,25.419 		"/>
	</g>
	<g clip-path="url(#SVGID_2_)">
		<polygon fill="#7C81BE" points="170.195,22.377 160.557,43.91 150.889,22.377 138.262,22.377 138.262,28.628 142.616,32.982 
			138.262,37.336 138.262,40.646 142.616,45 138.262,49.354 138.262,52.137 142.616,56.49 138.262,60.844 138.262,66 148.574,66 
			148.574,37.084 156.514,55.746 163.984,55.746 171.924,37.084 171.924,66 182.822,66 182.822,22.377 		"/>
		<path fill="#7C81BE" d="M589.521,47.807c0-5.058-1.27-8.945-3.809-11.66c-2.539-2.714-6.328-4.072-11.367-4.072
			c-5.026,0-9.031,1.329-12.037,3.959l1.764,1.763l-6.009,6.009l6.009,6.009l-5.745,5.744l5.745,5.746l-1.661,1.661
			c3.271,2.597,7.795,3.913,13.604,3.913c1.699,0,3.14-0.084,4.321-0.249c1.182-0.166,2.329-0.396,3.442-0.688
			c1.211-0.293,2.163-0.581,2.856-0.864c0.693-0.282,1.46-0.591,2.3-0.923v-8.467h-1.084c-0.449,0.332-1.03,0.713-1.743,1.143
			s-1.489,0.83-2.329,1.201c-0.957,0.43-2.012,0.776-3.164,1.04s-2.324,0.396-3.516,0.396c-1.387,0-2.666-0.132-3.838-0.396
			s-2.197-0.698-3.076-1.304c-0.898-0.605-1.621-1.421-2.168-2.446s-0.869-2.3-0.967-3.823h22.471V47.807z M567.021,45.316
			c0.117-2.051,0.737-3.672,1.86-4.863c1.123-1.191,2.681-1.787,4.673-1.787c1.953,0,3.403,0.567,4.351,1.699
			c0.947,1.133,1.45,2.783,1.509,4.951H567.021z"/>
		<path fill="#7C81BE" d="M548.916,35.37c-1.777-2.119-4.346-3.179-7.705-3.179c-1.934,0-3.696,0.4-5.288,1.201
			c-1.592,0.801-3.228,1.915-4.907,3.34V33.1h-10.254v1.167l3.602,3.602l-3.602,3.602v4.814l3.602,3.603l-3.602,3.602v4.286
			l3.602,3.603l-3.602,3.601V66h10.254V42.68c0.977-0.684,1.895-1.182,2.754-1.494c0.859-0.312,1.709-0.469,2.549-0.469
			c1.113,0,2.002,0.161,2.666,0.483s1.172,0.854,1.523,1.597c0.293,0.625,0.493,1.597,0.601,2.915s0.161,2.642,0.161,3.97V66h10.313
			V44.584C551.582,40.561,550.693,37.49,548.916,35.37z"/>
		<path fill="#7C81BE" d="M509.219,27.548c-3.77-4.053-8.936-6.079-15.498-6.079c-6.582,0-11.748,2.036-15.498,6.108
			c-0.162,0.177-0.302,0.372-0.457,0.554l3.322,3.323l-6.009,6.009l6.009,6.009l-5.745,5.744l5.745,5.746l-4.193,4.192
			c0.413,0.562,0.855,1.101,1.328,1.616c3.75,4.092,8.916,6.138,15.498,6.138c6.563,0,11.729-2.021,15.498-6.064
			s5.654-9.59,5.654-16.641C514.873,37.153,512.988,31.601,509.219,27.548z M502.803,50.81c-0.508,1.689-1.23,3.169-2.168,4.438
			c-0.879,1.172-1.924,2.036-3.135,2.593s-2.461,0.835-3.75,0.835c-1.27,0-2.5-0.259-3.691-0.776
			c-1.191-0.517-2.256-1.382-3.193-2.593c-0.918-1.191-1.641-2.67-2.168-4.438c-0.527-1.768-0.791-3.989-0.791-6.665
			c0-2.597,0.278-4.834,0.835-6.709s1.284-3.379,2.183-4.512c1.016-1.23,2.07-2.084,3.164-2.563
			c1.094-0.479,2.314-0.718,3.662-0.718c1.27,0,2.495,0.259,3.677,0.776c1.182,0.518,2.241,1.373,3.179,2.563
			c0.898,1.172,1.616,2.671,2.153,4.497c0.537,1.827,0.806,4.039,0.806,6.636C503.564,46.908,503.311,49.121,502.803,50.81z"/>
		<path fill="#7C81BE" d="M446.729,35.37c-1.777-2.119-4.346-3.179-7.705-3.179c-1.934,0-3.696,0.4-5.288,1.201
			c-1.592,0.801-3.228,1.915-4.907,3.34V33.1h-8.588l4.242,4.243l-5.908,5.908v0.201l5.908,5.909l-5.745,5.744l5.745,5.746
			L419.333,66h9.495V42.68c0.977-0.684,1.895-1.182,2.754-1.494c0.859-0.312,1.709-0.469,2.549-0.469
			c1.113,0,2.002,0.161,2.666,0.483s1.172,0.854,1.523,1.597c0.293,0.625,0.493,1.597,0.601,2.915s0.161,2.642,0.161,3.97V66h10.313
			V44.584C449.395,40.561,448.506,37.49,446.729,35.37z"/>
		<path fill="#7C81BE" d="M407.104,34.989c-2.589-1.885-6.714-2.827-12.378-2.827c-2.305,0-4.59,0.201-6.855,0.601
			c-1.876,0.332-3.316,0.626-4.336,0.884l5.15,5.15l-1.784,1.784c0.555-0.182,1.108-0.37,1.673-0.522
			c1.621-0.439,3.037-0.659,4.248-0.659c2.676,0,4.683,0.347,6.021,1.04c1.337,0.693,2.007,1.948,2.007,3.765v0.176
			c-2.969,0.195-5.742,0.469-8.32,0.82s-4.795,0.977-6.65,1.875c-0.213,0.102-0.399,0.223-0.601,0.333l3.407,3.407l-5.745,5.744
			l5.745,5.746l-3.355,3.355c1.464,0.809,3.13,1.219,5.002,1.219c1.563,0,2.778-0.117,3.647-0.352
			c0.868-0.234,1.763-0.576,2.681-1.025c0.938-0.469,1.685-0.938,2.241-1.406s1.187-0.996,1.89-1.582V66h10.195V43.617
			C410.986,39.75,409.692,36.875,407.104,34.989z M400.791,57.416c-0.762,0.742-1.611,1.318-2.549,1.729s-1.855,0.615-2.754,0.615
			c-1.621,0-2.847-0.288-3.677-0.864c-0.831-0.575-1.245-1.636-1.245-3.179c0-1.055,0.249-1.899,0.747-2.534
			c0.498-0.634,1.196-1.108,2.095-1.421c1.035-0.371,2.09-0.619,3.164-0.747c1.074-0.127,2.48-0.278,4.219-0.454V57.416z"/>
		<path fill="#7C81BE" d="M372.402,35.37c-1.777-2.119-4.346-3.179-7.705-3.179c-1.934,0-3.696,0.4-5.288,1.201
			c-1.592,0.801-3.228,1.915-4.907,3.34V20.414h-10.254v5.475l5.565,5.565l-5.565,5.565v0.888l5.565,5.565l-5.565,5.564v0.36
			l5.565,5.565l-5.565,5.564V66h10.254V42.68c0.977-0.684,1.894-1.182,2.754-1.494c0.859-0.312,1.709-0.469,2.549-0.469
			c1.113,0,2.002,0.161,2.666,0.483c0.664,0.322,1.172,0.854,1.523,1.597c0.293,0.625,0.493,1.597,0.601,2.915
			c0.107,1.318,0.161,2.642,0.161,3.97V66h10.313V44.584C375.068,40.561,374.18,37.49,372.402,35.37z"/>
		<path fill="#7C81BE" d="M284.658,47.807c0-5.058-1.27-8.945-3.809-11.66c-2.539-2.714-6.328-4.072-11.367-4.072
			c-4.229,0-7.736,0.937-10.535,2.798l2.924,2.924l-6.009,6.009l6.009,6.009l-5.745,5.744l5.745,5.746l-2.753,2.753
			c3.103,1.87,7.104,2.821,12.034,2.821c1.699,0,3.139-0.084,4.321-0.249c1.182-0.166,2.329-0.396,3.442-0.688
			c1.211-0.293,2.163-0.581,2.856-0.864c0.693-0.282,1.46-0.591,2.3-0.923v-8.467h-1.084c-0.45,0.332-1.03,0.713-1.743,1.143
			c-0.713,0.43-1.49,0.83-2.329,1.201c-0.957,0.43-2.012,0.776-3.164,1.04c-1.153,0.264-2.325,0.396-3.516,0.396
			c-1.387,0-2.666-0.132-3.838-0.396s-2.197-0.698-3.076-1.304c-0.898-0.605-1.622-1.421-2.168-2.446
			c-0.547-1.025-0.869-2.3-0.967-3.823h22.471V47.807z M262.158,45.316c0.117-2.051,0.737-3.672,1.86-4.863
			c1.123-1.191,2.681-1.787,4.673-1.787c1.953,0,3.403,0.567,4.351,1.699c0.947,1.133,1.45,2.783,1.509,4.951H262.158z"/>
		<path fill="#7C81BE" d="M249.268,33.012c-0.41-0.019-0.781-0.029-1.113-0.029c-0.879,0-1.812,0.161-2.798,0.483
			c-0.986,0.322-1.851,0.708-2.593,1.157c-0.684,0.391-1.44,0.913-2.271,1.567c-0.831,0.655-1.479,1.197-1.948,1.626V33.1h-8.455
			l4.243,4.243l-6.009,6.009l6.009,6.009l-5.745,5.744l5.745,5.746L229.183,66h9.362V43.969c1.113-0.429,2.26-0.801,3.442-1.113
			c1.182-0.312,2.31-0.469,3.384-0.469c0.898,0,1.718,0.034,2.461,0.103c0.742,0.069,1.308,0.171,1.699,0.308h0.85V33.1
			C250.048,33.061,249.678,33.031,249.268,33.012z"/>
		<path fill="#7C81BE" d="M218.389,36.747c-2.969-3.115-7.148-4.673-12.539-4.673c-4.368,0-7.931,1.042-10.716,3.089l2.179,2.179
			l-6.009,6.009l6.009,6.009l-5.745,5.744l5.745,5.746l-2.69,2.689c2.853,2.32,6.592,3.485,11.227,3.485
			c5.41,0,9.595-1.557,12.554-4.673c2.959-3.115,4.438-7.378,4.438-12.788C222.842,44.135,221.357,39.863,218.389,36.747z
			 M211.855,54.53c-0.313,1.183-0.772,2.192-1.377,3.032c-0.508,0.703-1.187,1.23-2.036,1.582s-1.685,0.527-2.505,0.527
			c-0.996,0-1.904-0.176-2.725-0.527s-1.504-0.908-2.051-1.67c-0.527-0.742-0.957-1.732-1.289-2.974
			c-0.333-1.24-0.498-2.866-0.498-4.878s0.176-3.681,0.527-5.01c0.352-1.328,0.82-2.373,1.406-3.135
			c0.625-0.801,1.308-1.343,2.051-1.626c0.742-0.283,1.572-0.425,2.49-0.425c0.977,0,1.846,0.161,2.607,0.483
			s1.445,0.894,2.051,1.714c0.566,0.781,1.011,1.821,1.333,3.12c0.322,1.3,0.483,2.925,0.483,4.878
			C212.324,51.713,212.167,53.349,211.855,54.53z"/>
		<polygon fill="#7C81BE" points="303.584,22.377 303.584,24.662 309.62,30.697 316.475,30.697 316.475,37.808 319.106,40.44 
			316.475,43.072 316.475,49.826 319.106,52.458 316.475,55.09 316.475,61.316 319.106,63.948 317.055,66 327.432,66 
			327.432,30.697 340.322,30.697 340.322,22.377 		"/>
	</g>
	<g clip-path="url(#SVGID_2_)">
		<polygon fill="none" stroke="#B2B2D3" stroke-miterlimit="10" points="170.804,22.542 161.165,44.075 151.497,22.542 
			138.87,22.542 138.87,28.794 143.224,33.147 138.87,37.501 138.87,40.812 143.224,45.165 138.87,49.519 138.87,52.302 
			143.224,56.655 138.87,61.009 138.87,66.165 149.183,66.165 149.183,37.249 157.122,55.911 164.593,55.911 172.532,37.249 
			172.532,66.165 183.431,66.165 183.431,22.542 		"/>
		<path fill="none" stroke="#B2B2D3" stroke-miterlimit="10" d="M590.13,47.972c0-5.059-1.27-8.945-3.809-11.66
			s-6.328-4.072-11.367-4.072c-5.026,0-9.031,1.329-12.037,3.959l1.764,1.764l-6.009,6.008l6.009,6.01l-5.745,5.744l5.745,5.746
			l-1.661,1.661c3.271,2.597,7.795,3.913,13.604,3.913c1.699,0,3.14-0.084,4.321-0.249c1.182-0.166,2.329-0.396,3.442-0.688
			c1.211-0.293,2.163-0.581,2.856-0.864c0.693-0.282,1.46-0.591,2.3-0.923v-8.467h-1.084c-0.449,0.332-1.03,0.713-1.743,1.143
			s-1.489,0.83-2.329,1.201c-0.957,0.43-2.012,0.776-3.164,1.04s-2.324,0.396-3.516,0.396c-1.387,0-2.666-0.132-3.838-0.396
			s-2.197-0.698-3.076-1.304c-0.898-0.605-1.621-1.421-2.168-2.446s-0.869-2.3-0.967-3.823h22.471V47.972z M567.63,45.481
			c0.117-2.051,0.737-3.672,1.86-4.863s2.681-1.787,4.673-1.787c1.953,0,3.403,0.566,4.351,1.699s1.45,2.783,1.509,4.951H567.63z"/>
		<path fill="none" stroke="#B2B2D3" stroke-miterlimit="10" d="M549.524,35.535c-1.777-2.119-4.346-3.179-7.705-3.179
			c-1.934,0-3.696,0.4-5.288,1.201s-3.228,1.914-4.907,3.34v-3.633H521.37v1.167l3.602,3.602l-3.602,3.603v4.813l3.602,3.603
			l-3.602,3.602v4.286l3.602,3.603l-3.602,3.601v1.022h10.254v-23.32c0.977-0.684,1.895-1.182,2.754-1.494s1.709-0.469,2.549-0.469
			c1.113,0,2.002,0.161,2.666,0.483s1.172,0.854,1.523,1.597c0.293,0.625,0.493,1.597,0.601,2.915s0.161,2.642,0.161,3.97v16.318
			h10.313V44.749C552.19,40.726,551.302,37.655,549.524,35.535z"/>
		<path fill="none" stroke="#B2B2D3" stroke-miterlimit="10" d="M509.827,27.713c-3.77-4.053-8.936-6.079-15.498-6.079
			c-6.582,0-11.748,2.036-15.498,6.108c-0.162,0.177-0.302,0.372-0.457,0.554l3.322,3.322l-6.009,6.01l6.009,6.009l-5.745,5.744
			l5.745,5.746l-4.193,4.192c0.413,0.562,0.855,1.101,1.328,1.616c3.75,4.092,8.916,6.138,15.498,6.138
			c6.563,0,11.729-2.021,15.498-6.064s5.654-9.59,5.654-16.641S513.597,31.767,509.827,27.713z M503.411,50.975
			c-0.508,1.689-1.23,3.169-2.168,4.438c-0.879,1.172-1.924,2.036-3.135,2.593s-2.461,0.835-3.75,0.835
			c-1.27,0-2.5-0.259-3.691-0.776c-1.191-0.517-2.256-1.382-3.193-2.593c-0.918-1.191-1.641-2.67-2.168-4.438
			c-0.527-1.768-0.791-3.989-0.791-6.665c0-2.598,0.278-4.834,0.835-6.709s1.284-3.379,2.183-4.512
			c1.016-1.23,2.07-2.084,3.164-2.563c1.094-0.479,2.314-0.718,3.662-0.718c1.27,0,2.495,0.26,3.677,0.776
			c1.182,0.518,2.241,1.372,3.179,2.563c0.898,1.172,1.616,2.671,2.153,4.497c0.537,1.827,0.806,4.038,0.806,6.636
			C504.173,47.073,503.919,49.286,503.411,50.975z"/>
		<path fill="none" stroke="#B2B2D3" stroke-miterlimit="10" d="M447.337,35.535c-1.777-2.119-4.346-3.179-7.705-3.179
			c-1.934,0-3.696,0.4-5.288,1.201s-3.228,1.914-4.907,3.34v-3.633h-8.588l4.242,4.242l-5.908,5.908v0.201l5.908,5.909l-5.745,5.744
			l5.745,5.746l-5.149,5.149h9.495v-23.32c0.977-0.684,1.895-1.182,2.754-1.494s1.709-0.469,2.549-0.469
			c1.113,0,2.002,0.161,2.666,0.483s1.172,0.854,1.523,1.597c0.293,0.625,0.493,1.597,0.601,2.915s0.161,2.642,0.161,3.97v16.318
			h10.313V44.749C450.003,40.726,449.114,37.655,447.337,35.535z"/>
		<path fill="none" stroke="#B2B2D3" stroke-miterlimit="10" d="M407.713,35.154c-2.589-1.885-6.714-2.827-12.378-2.827
			c-2.305,0-4.59,0.201-6.855,0.601c-1.876,0.331-3.316,0.626-4.336,0.884l5.15,5.15l-1.784,1.783
			c0.555-0.182,1.108-0.369,1.673-0.522c1.621-0.439,3.037-0.659,4.248-0.659c2.676,0,4.683,0.348,6.021,1.04
			c1.337,0.693,2.007,1.948,2.007,3.765v0.176c-2.969,0.195-5.742,0.469-8.32,0.82s-4.795,0.977-6.65,1.875
			c-0.213,0.102-0.399,0.223-0.601,0.333l3.407,3.407l-5.745,5.744l5.745,5.746l-3.355,3.355c1.464,0.809,3.13,1.219,5.002,1.219
			c1.563,0,2.778-0.117,3.647-0.352c0.868-0.234,1.763-0.576,2.681-1.025c0.938-0.469,1.685-0.938,2.241-1.406
			s1.187-0.996,1.89-1.582v3.486h10.195V43.782C411.595,39.915,410.301,37.04,407.713,35.154z M401.399,57.581
			c-0.762,0.742-1.611,1.318-2.549,1.729s-1.855,0.615-2.754,0.615c-1.621,0-2.847-0.288-3.677-0.864
			c-0.831-0.575-1.245-1.636-1.245-3.179c0-1.055,0.249-1.899,0.747-2.534c0.498-0.634,1.196-1.108,2.095-1.421
			c1.035-0.371,2.09-0.619,3.164-0.747c1.074-0.127,2.48-0.278,4.219-0.454V57.581z"/>
		<path fill="none" stroke="#B2B2D3" stroke-miterlimit="10" d="M373.011,35.535c-1.777-2.119-4.346-3.179-7.705-3.179
			c-1.934,0-3.696,0.4-5.288,1.201c-1.592,0.801-3.228,1.914-4.907,3.34V20.579h-10.254v5.475l5.565,5.564l-5.565,5.565v0.888
			l5.565,5.565l-5.565,5.564v0.36l5.565,5.565l-5.565,5.564v5.474h10.254v-23.32c0.977-0.684,1.894-1.182,2.754-1.494
			c0.859-0.313,1.709-0.469,2.549-0.469c1.113,0,2.002,0.161,2.666,0.483c0.664,0.322,1.172,0.854,1.523,1.597
			c0.293,0.625,0.493,1.597,0.601,2.915s0.161,2.642,0.161,3.97v16.318h10.313V44.749C375.677,40.726,374.788,37.655,373.011,35.535
			z"/>
		<path fill="none" stroke="#B2B2D3" stroke-miterlimit="10" d="M285.267,47.972c0-5.059-1.27-8.945-3.809-11.66
			c-2.539-2.715-6.328-4.072-11.367-4.072c-4.229,0-7.736,0.938-10.535,2.799l2.924,2.924l-6.009,6.008l6.009,6.01l-5.745,5.744
			l5.745,5.746l-2.753,2.753c3.103,1.87,7.104,2.821,12.034,2.821c1.699,0,3.139-0.084,4.321-0.249
			c1.182-0.166,2.329-0.396,3.442-0.688c1.211-0.293,2.163-0.581,2.856-0.864c0.693-0.282,1.46-0.591,2.3-0.923v-8.467h-1.084
			c-0.45,0.332-1.03,0.713-1.743,1.143c-0.713,0.43-1.49,0.83-2.329,1.201c-0.957,0.43-2.012,0.776-3.164,1.04
			c-1.153,0.264-2.325,0.396-3.516,0.396c-1.387,0-2.666-0.132-3.838-0.396s-2.197-0.698-3.076-1.304
			c-0.898-0.605-1.622-1.421-2.168-2.446c-0.547-1.025-0.869-2.3-0.967-3.823h22.471V47.972z M262.767,45.481
			c0.117-2.051,0.737-3.672,1.86-4.863c1.123-1.191,2.681-1.787,4.673-1.787c1.953,0,3.403,0.566,4.351,1.699
			c0.947,1.133,1.45,2.783,1.509,4.951H262.767z"/>
		<path fill="none" stroke="#B2B2D3" stroke-miterlimit="10" d="M249.876,33.177c-0.41-0.02-0.781-0.029-1.113-0.029
			c-0.879,0-1.812,0.161-2.798,0.483c-0.986,0.322-1.851,0.708-2.593,1.157c-0.684,0.391-1.44,0.913-2.271,1.567
			c-0.831,0.655-1.479,1.196-1.948,1.626v-4.717h-8.455l4.243,4.242l-6.009,6.01l6.009,6.009l-5.745,5.744l5.745,5.746l-5.15,5.149
			h9.362V44.134c1.113-0.43,2.26-0.801,3.442-1.113c1.182-0.313,2.31-0.469,3.384-0.469c0.898,0,1.718,0.034,2.461,0.103
			c0.742,0.069,1.308,0.171,1.699,0.308h0.85v-9.697C250.657,33.226,250.286,33.196,249.876,33.177z"/>
		<path fill="none" stroke="#B2B2D3" stroke-miterlimit="10" d="M218.997,36.912c-2.969-3.115-7.148-4.673-12.539-4.673
			c-4.368,0-7.931,1.042-10.716,3.089l2.179,2.179l-6.009,6.01l6.009,6.009l-5.745,5.744l5.745,5.746l-2.69,2.689
			c2.853,2.32,6.592,3.485,11.227,3.485c5.41,0,9.595-1.557,12.554-4.673c2.959-3.115,4.438-7.378,4.438-12.788
			C223.45,44.3,221.966,40.028,218.997,36.912z M212.464,54.695c-0.313,1.183-0.772,2.192-1.377,3.032
			c-0.508,0.703-1.187,1.23-2.036,1.582s-1.685,0.527-2.505,0.527c-0.996,0-1.904-0.176-2.725-0.527s-1.504-0.908-2.051-1.67
			c-0.527-0.742-0.957-1.732-1.289-2.974c-0.333-1.24-0.498-2.866-0.498-4.878s0.176-3.682,0.527-5.01s0.82-2.373,1.406-3.135
			c0.625-0.801,1.308-1.343,2.051-1.626c0.742-0.282,1.572-0.425,2.49-0.425c0.977,0,1.846,0.161,2.607,0.483
			s1.445,0.894,2.051,1.714c0.566,0.781,1.011,1.821,1.333,3.12c0.322,1.3,0.483,2.925,0.483,4.878
			C212.933,51.878,212.776,53.514,212.464,54.695z"/>
		<polygon fill="none" stroke="#B2B2D3" stroke-miterlimit="10" points="304.192,22.542 304.192,24.827 310.228,30.862 
			317.083,30.862 317.083,37.974 319.715,40.604 317.083,43.237 317.083,49.991 319.715,52.623 317.083,55.255 317.083,61.481 
			319.715,64.113 317.663,66.165 328.04,66.165 328.04,30.862 340.931,30.862 340.931,22.542 		"/>
	</g>
</g>
</svg>
